<svg width="324" height="64" viewBox="0 0 324 64" fill="none" xmlns="http://www.w3.org/2000/svg">
<path d="M150 21.2994C150 37.8281 133.301 53.8928 127.199 59.2112C125.992 60.2629 124.008 60.2629 122.801 59.2112C116.699 53.8926 100 37.8281 100 21.2994C100 9.53621 111.193 0 125 0C138.807 0 150 9.53601 150 21.2994Z" fill="#DD636E"/>
<path d="M134.204 1.49023C138.435 5.30525 141.029 10.4512 141.029 16.1139C141.029 33.1177 123.358 49.6285 117.731 54.4555C119.725 56.4604 121.504 58.0797 122.801 59.2108C124.008 60.2626 125.992 60.2626 127.199 59.2108C133.301 53.8925 150 37.8278 150 21.2991C150 12.3052 143.456 4.61347 134.204 1.49023Z" fill="#DA4A54"/>
<path d="M125 36.9806C134.962 36.9806 143.039 30.0999 143.039 21.6121C143.039 13.1244 134.962 6.24365 125 6.24365C115.038 6.24365 106.961 13.1244 106.961 21.6121C106.961 30.0999 115.038 36.9806 125 36.9806Z" fill="#F9F6F9"/>
<path d="M134.507 8.55017C136.223 10.9022 137.215 13.6775 137.215 16.6504C137.215 25.1383 129.139 32.0189 119.176 32.0189C115.687 32.0189 112.429 31.1739 109.669 29.7121C112.851 34.0752 118.527 36.9805 125 36.9805C134.963 36.9805 143.039 30.0997 143.039 21.6121C143.039 16.0972 139.628 11.2616 134.507 8.55017Z" fill="#DDEAFB"/>
<path d="M125.858 30.0507C131.452 30.0507 135.987 25.9145 135.987 20.8122C135.987 15.7098 131.452 11.5736 125.858 11.5736C120.264 11.5736 115.729 15.7098 115.729 20.8122C115.729 25.9145 120.264 30.0507 125.858 30.0507Z" fill="#665E66"/>
<path d="M125.858 25.7867C128.556 25.7867 130.744 23.5595 130.744 20.8121C130.744 18.0647 128.556 15.8375 125.858 15.8375C123.16 15.8375 120.972 18.0647 120.972 20.8121C120.972 23.5595 123.16 25.7867 125.858 25.7867Z" fill="#F9F6F9"/>
<path d="M76.4696 60.648C71.4776 60.648 67.1096 59.592 63.3656 57.48C59.6216 55.368 56.7416 52.344 54.7256 48.408C52.7096 44.472 51.7016 39.864 51.7016 34.584C51.7016 29.304 52.7096 24.72 54.7256 20.832C56.7416 16.896 59.6216 13.872 63.3656 11.76C67.1096 9.648 71.4776 8.592 76.4696 8.592C82.7576 8.592 88.1816 10.32 92.7416 13.776C93.4616 14.352 93.9656 14.928 94.2536 15.504C94.5416 16.08 94.6856 16.8 94.6856 17.664C94.6856 18.912 94.3256 19.992 93.6056 20.904C92.9336 21.768 92.0936 22.2 91.0856 22.2C90.4136 22.2 89.8136 22.128 89.2856 21.984C88.8056 21.792 88.2536 21.48 87.6296 21.048C85.7096 19.8 83.9336 18.912 82.3016 18.384C80.6696 17.808 78.9176 17.52 77.0456 17.52C72.4376 17.52 68.9576 18.96 66.6056 21.84C64.3016 24.672 63.1496 28.92 63.1496 34.584C63.1496 46.008 67.7816 51.72 77.0456 51.72C78.8216 51.72 80.5016 51.456 82.0856 50.928C83.6696 50.352 85.5176 49.44 87.6296 48.192C88.3496 47.76 88.9496 47.472 89.4296 47.328C89.9096 47.136 90.4616 47.04 91.0856 47.04C92.0936 47.04 92.9336 47.496 93.6056 48.408C94.3256 49.272 94.6856 50.328 94.6856 51.576C94.6856 52.44 94.5176 53.184 94.1816 53.808C93.8936 54.384 93.4136 54.936 92.7416 55.464C88.1816 58.92 82.7576 60.648 76.4696 60.648Z" fill="white"/>
<path d="M160.683 62.432C159.099 62.432 157.779 62 156.723 61.136C155.715 60.272 155.211 59 155.211 57.32V15.992C155.211 14.312 155.715 13.04 156.723 12.176C157.779 11.312 159.099 10.88 160.683 10.88C162.219 10.88 163.491 11.312 164.499 12.176C165.555 13.04 166.083 14.312 166.083 15.992V57.32C166.083 59 165.555 60.272 164.499 61.136C163.491 62 162.219 62.432 160.683 62.432ZM202.774 51.488C203.734 51.488 204.502 51.872 205.078 52.64C205.702 53.408 206.014 54.392 206.014 55.592C206.014 56.408 205.774 57.176 205.294 57.896C204.814 58.568 204.142 59.144 203.278 59.624C201.646 60.488 199.75 61.208 197.59 61.784C195.43 62.312 193.438 62.576 191.614 62.576C187.774 62.576 184.414 61.832 181.534 60.344C178.702 58.856 176.518 56.744 174.982 54.008C173.446 51.224 172.678 47.96 172.678 44.216C172.678 40.616 173.422 37.424 174.91 34.64C176.398 31.856 178.462 29.696 181.102 28.16C183.742 26.576 186.742 25.784 190.102 25.784C193.318 25.784 196.126 26.504 198.526 27.944C200.974 29.336 202.87 31.352 204.214 33.992C205.558 36.584 206.23 39.632 206.23 43.136C206.23 44.192 205.966 45.008 205.438 45.584C204.958 46.112 204.262 46.376 203.35 46.376H183.19C183.526 49.208 184.39 51.272 185.782 52.568C187.174 53.816 189.166 54.44 191.758 54.44C193.15 54.44 194.398 54.272 195.502 53.936C196.606 53.6 197.83 53.144 199.174 52.568C199.846 52.28 200.494 52.04 201.118 51.848C201.742 51.608 202.294 51.488 202.774 51.488ZM190.39 33.272C188.326 33.272 186.67 33.944 185.422 35.288C184.174 36.584 183.43 38.48 183.19 40.976H197.086C196.942 38.432 196.294 36.512 195.142 35.216C194.038 33.92 192.454 33.272 190.39 33.272ZM231.75 54.512C233.19 54.608 234.246 54.968 234.918 55.592C235.59 56.216 235.926 57.128 235.926 58.328C235.926 59.72 235.374 60.776 234.27 61.496C233.166 62.216 231.582 62.504 229.518 62.36L227.502 62.216C219.102 61.544 214.902 57.152 214.902 49.04V34.784H212.022C210.438 34.784 209.238 34.448 208.422 33.776C207.606 33.056 207.198 32.048 207.198 30.752C207.198 29.408 207.606 28.4 208.422 27.728C209.238 27.008 210.438 26.648 212.022 26.648H214.902V21.032C214.902 19.448 215.382 18.2 216.342 17.288C217.35 16.376 218.694 15.92 220.374 15.92C222.054 15.92 223.374 16.376 224.334 17.288C225.294 18.2 225.774 19.448 225.774 21.032V26.648H230.814C234.078 26.648 235.71 28.016 235.71 30.752C235.71 32.048 235.302 33.056 234.486 33.776C233.67 34.448 232.446 34.784 230.814 34.784H225.774V49.832C225.774 51.272 226.11 52.376 226.782 53.144C227.454 53.864 228.438 54.272 229.734 54.368L231.75 54.512ZM255.85 25.784C261.034 25.784 264.874 27.056 267.37 29.6C269.866 32.096 271.114 35.936 271.114 41.12V57.392C271.114 58.976 270.658 60.224 269.746 61.136C268.834 62 267.562 62.432 265.93 62.432C264.394 62.432 263.146 61.976 262.186 61.064C261.274 60.104 260.818 58.88 260.818 57.392V56.888C260.098 58.664 258.898 60.056 257.218 61.064C255.538 62.072 253.57 62.576 251.314 62.576C248.914 62.576 246.73 62.096 244.762 61.136C242.842 60.176 241.306 58.832 240.154 57.104C239.05 55.376 238.498 53.456 238.498 51.344C238.498 48.752 239.146 46.712 240.442 45.224C241.786 43.736 243.922 42.656 246.85 41.984C249.778 41.312 253.786 40.976 258.874 40.976H260.746V39.68C260.746 37.664 260.29 36.2 259.378 35.288C258.514 34.376 257.05 33.92 254.986 33.92C252.922 33.92 249.946 34.64 246.058 36.08C244.954 36.608 244.018 36.872 243.25 36.872C242.194 36.872 241.354 36.512 240.73 35.792C240.106 35.024 239.794 34.04 239.794 32.84C239.794 31.88 240.01 31.088 240.442 30.464C240.874 29.84 241.57 29.264 242.53 28.736C244.21 27.824 246.25 27.104 248.65 26.576C251.098 26.048 253.498 25.784 255.85 25.784ZM253.69 55.088C255.802 55.088 257.506 54.392 258.802 53C260.098 51.56 260.746 49.712 260.746 47.456V46.232H259.522C255.634 46.232 252.898 46.544 251.314 47.168C249.778 47.792 249.01 48.92 249.01 50.552C249.01 51.896 249.442 53 250.306 53.864C251.218 54.68 252.346 55.088 253.69 55.088ZM300.338 25.928C301.778 25.832 302.906 26.168 303.722 26.936C304.586 27.656 305.018 28.76 305.018 30.248C305.018 31.832 304.634 33.008 303.866 33.776C303.098 34.544 301.73 35.024 299.762 35.216L297.602 35.432C294.962 35.72 293.042 36.584 291.842 38.024C290.69 39.464 290.114 41.312 290.114 43.568V57.32C290.114 59 289.586 60.272 288.53 61.136C287.522 62 286.25 62.432 284.714 62.432C283.13 62.432 281.81 62 280.754 61.136C279.746 60.272 279.242 59 279.242 57.32V30.896C279.242 29.312 279.77 28.088 280.826 27.224C281.882 26.36 283.154 25.928 284.642 25.928C286.082 25.928 287.282 26.36 288.242 27.224C289.202 28.04 289.682 29.192 289.682 30.68V32.624C290.546 30.56 291.842 28.976 293.57 27.872C295.346 26.768 297.266 26.144 299.33 26L300.338 25.928Z" fill="white"/>
</svg>
